G04 MADE WITH FRITZING*
G04 WWW.FRITZING.ORG*
G04 SINGLE SIDED*
G04 HOLES NOT PLATED*
G04 CONTOUR ON CENTER OF CONTOUR VECTOR*
%ASAXBY*%
%FSLAX23Y23*%
%MOIN*%
%OFA0B0*%
%SFA1.0B1.0*%
%ADD10C,0.088000*%
%ADD11C,0.085000*%
%ADD12C,0.084000*%
%ADD13C,0.090000*%
%ADD14R,0.089986X0.090000*%
%ADD15R,0.085000X0.085000*%
%LNMASK0*%
G90*
G70*
G54D10*
X1467Y566D03*
X1467Y466D03*
X1467Y366D03*
X1467Y266D03*
X1467Y166D03*
G54D11*
X1267Y366D03*
X1267Y266D03*
X1267Y166D03*
X1467Y66D03*
X1067Y66D03*
X1367Y266D03*
X1367Y666D03*
X967Y666D03*
X1367Y666D03*
G54D12*
X367Y366D03*
X367Y666D03*
X267Y366D03*
X267Y666D03*
X367Y66D03*
X367Y366D03*
X267Y66D03*
X267Y366D03*
G54D13*
X67Y266D03*
X67Y466D03*
G54D10*
X567Y66D03*
X967Y66D03*
X767Y166D03*
X767Y566D03*
X467Y66D03*
X467Y466D03*
G54D11*
X467Y666D03*
X467Y566D03*
X467Y466D03*
X867Y666D03*
X467Y666D03*
X667Y566D03*
X667Y166D03*
X567Y566D03*
X567Y166D03*
X867Y266D03*
X1167Y266D03*
X867Y166D03*
X1167Y166D03*
X1167Y466D03*
X867Y466D03*
X1167Y566D03*
X867Y566D03*
G54D14*
X67Y266D03*
G54D15*
X867Y266D03*
X1167Y466D03*
G04 End of Mask0*
M02*