G04 MADE WITH FRITZING*
G04 WWW.FRITZING.ORG*
G04 SINGLE SIDED*
G04 HOLES NOT PLATED*
G04 CONTOUR ON CENTER OF CONTOUR VECTOR*
%ASAXBY*%
%FSLAX23Y23*%
%MOIN*%
%OFA0B0*%
%SFA1.0B1.0*%
%ADD10C,0.078000*%
%ADD11C,0.075000*%
%ADD12C,0.074000*%
%ADD13C,0.080000*%
%ADD14R,0.079986X0.080000*%
%ADD15R,0.075000X0.075000*%
%ADD16C,0.024000*%
%LNCOPPER0*%
G90*
G70*
G54D10*
X1467Y566D03*
X1467Y466D03*
X1467Y366D03*
X1467Y266D03*
X1467Y166D03*
G54D11*
X1267Y366D03*
X1267Y266D03*
X1267Y166D03*
X1467Y66D03*
X1067Y66D03*
X1367Y266D03*
X1367Y666D03*
X967Y666D03*
X1367Y666D03*
G54D12*
X367Y366D03*
X367Y666D03*
X267Y366D03*
X267Y666D03*
X367Y66D03*
X367Y366D03*
X267Y66D03*
X267Y366D03*
G54D13*
X67Y266D03*
X67Y466D03*
G54D10*
X567Y66D03*
X967Y66D03*
X767Y166D03*
X767Y566D03*
X467Y66D03*
X467Y466D03*
G54D11*
X467Y666D03*
X467Y566D03*
X467Y466D03*
X867Y666D03*
X467Y666D03*
X667Y566D03*
X667Y166D03*
X567Y566D03*
X567Y166D03*
X867Y266D03*
X1167Y266D03*
X867Y166D03*
X1167Y166D03*
X1167Y466D03*
X867Y466D03*
X1167Y566D03*
X867Y566D03*
G54D14*
X67Y266D03*
G54D15*
X867Y266D03*
X1167Y466D03*
G54D16*
X1437Y566D02*
X1196Y566D01*
D02*
X847Y646D02*
X789Y588D01*
D02*
X1068Y266D02*
X1068Y95D01*
D02*
X1168Y366D02*
X1068Y266D01*
D02*
X988Y646D02*
X1147Y487D01*
D02*
X1168Y366D02*
X1239Y366D01*
D02*
X1266Y66D02*
X1188Y146D01*
D02*
X1439Y66D02*
X1266Y66D01*
D02*
X1247Y187D02*
X1188Y246D01*
D02*
X1368Y166D02*
X1296Y166D01*
D02*
X1446Y245D02*
X1368Y166D01*
D02*
X1446Y545D02*
X1288Y387D01*
D02*
X1446Y445D02*
X1288Y287D01*
D02*
X1446Y345D02*
X1388Y287D01*
D02*
X1467Y136D02*
X1467Y95D01*
D02*
X839Y166D02*
X798Y166D01*
D02*
X696Y166D02*
X737Y166D01*
D02*
X667Y366D02*
X667Y538D01*
D02*
X768Y267D02*
X667Y366D01*
D02*
X839Y267D02*
X768Y267D01*
D02*
X596Y566D02*
X639Y566D01*
D02*
X468Y267D02*
X547Y187D01*
D02*
X468Y438D02*
X468Y267D01*
D02*
X767Y667D02*
X568Y667D01*
D02*
X568Y667D02*
X488Y587D01*
D02*
X839Y667D02*
X767Y667D01*
D02*
X847Y487D02*
X789Y545D01*
D02*
X967Y466D02*
X888Y546D01*
D02*
X967Y97D02*
X967Y466D01*
D02*
X647Y146D02*
X589Y88D01*
D02*
X168Y366D02*
X90Y288D01*
D02*
X239Y366D02*
X168Y366D01*
D02*
X267Y467D02*
X99Y467D01*
D02*
X347Y387D02*
X267Y467D01*
D02*
X339Y66D02*
X296Y66D01*
D02*
X437Y66D02*
X396Y66D01*
D02*
X339Y666D02*
X296Y666D01*
D02*
X439Y666D02*
X396Y666D01*
D02*
X498Y66D02*
X537Y66D01*
G04 End of Copper0*
M02*