; NON-PLATED HOLES START AT T1
; THROUGH (PLATED) HOLES START AT T100
M48
INCH
T100C0.040000
T101C0.035433
T102C0.039370
T103C0.038000
T104C0.035000
%
T100
X000674Y004664
X000674Y002664
T101
X003674Y006664
X002674Y006664
X003674Y000664
X002674Y000664
X003674Y003664
X002674Y003664
T102
X009674Y000664
X004674Y004664
X007674Y005664
X005674Y000664
X004674Y000664
X007674Y001664
T103
X014674Y001664
X014674Y004664
X014674Y002664
X014674Y005664
X014674Y003664
T104
X006674Y001664
X010674Y000664
X008674Y001664
X009674Y006664
X004674Y004664
X008674Y002664
X011674Y001664
X004674Y005664
X005674Y005664
X013674Y006664
X011674Y002664
X004674Y006664
X012674Y001664
X008674Y004664
X006674Y005664
X014674Y000664
X012674Y002664
X008674Y005664
X005674Y001664
X013674Y002664
X011674Y004664
X012674Y003664
X008674Y006664
X011674Y005664
T00
M30
